<svg width="117" height="145" fill="none" xmlns="http://www.w3.org/2000/svg"><g clip-path="url(#clip0)"><path d="M109.938 3.58c7.912 4.713 6.428 18.112 6.831 35.408.231 9.661.274 13.873.188 22.745-.073 6.74.533 18.586-1.514 24.246-2.09 5.765-7.768 7.16-11.357 8.503-4.525 1.685-9.108 2.843-13.72 3.29-2.724.264-5.448.527-8.158.948-1.6.264-4.223-.026-5.65 1.606-1.729 2.001-2.925 11.136-4.943 16.164-1.801 4.475-4.15 8.687-6.889 11.162-.764.684-1.6 1.263-2.45 1.026-2.667-.684-2.465-8.95-2.48-12.531-.014-3 .073-6.186.404-9.213.332-3.028-1.037-5.766-2.724-5.502l-6.5 1.026c-12.466.369-15.377-.473-26.605-4.58-4.569-1.659-7.192-7.74-7.437-16.48-.317-11.425-.043-23.008-.072-34.433-.014-9.346-.821-19.903 1.932-28.327C21.69 9.767 27.93 7.082 33.524 5.555 47.59 1.843 61.756.185 75.981 0c0 0 27.268-.395 33.956 3.58z" fill="#F7BC28"/><path d="M39.029 44.095c19.096.895 38.279.158 57.332-2.343 2.753-.369 2.782-8.266 0-7.897-19.053 2.5-38.236 3.238-57.332 2.343-2.782-.132-2.782 7.765 0 7.897zM35.757 66.314c12.352 0 24.703-1.053 37.054-1.316 9.556-.185 19.068.658 28.595-.843 2.752-.421 2.781-8.319 0-7.898-9.527 1.475-19.04.632-28.595.843-12.351.263-24.702 1.316-37.054 1.316-2.782 0-2.796 7.898 0 7.898z" fill="#fff"/><path d="M16.214 136.839c.144-1.579-.418-3.132-1.283-3.448-5.304-1.922-10.261-6.503-13.374-15.006-5.333-14.584 4.222-29.484 11.025-34.38 6.99-5.029 15.32-4.45 21.792 2.58.418.447.807.92 1.196 1.447 4.655 6.187 8.546 18.375 7.307 28.563-.461 3.765-1.6 7.24-3.675 10.056-3.863 5.265-9.109 7.213-14.11 7.714-.966.105-1.874.842-2.508 2.158-1.052 2.159-2.81 5.555-4.424 7.898-1.067 1.553-2.623-.184-2.393-2.632l.447-4.95z" fill="#39B55D"/><path d="M12.77 104.617h18.894c2.32 0 2.32-6.581 0-6.581H12.769c-2.32 0-2.32 6.581 0 6.581zM11.847 118.622h19.586c2.32 0 2.32-6.581 0-6.581H11.847c-2.32 0-2.32 6.581 0 6.581z" fill="#fff"/></g><defs><clipPath id="clip0"><path fill="#fff" d="M0 0h117v145H0z"/></clipPath></defs></svg>