<svg width="492" height="511" fill="none" xmlns="http://www.w3.org/2000/svg"><path d="M316.835 480.743c-146.769 38.924-227.856 6.21-250.052-14.999-99.235-94.846-61.206-197.071-45.108-224.592 21.239-36.327 61.163-90.899 84.64-128.593C167.641 7.412 251.7 3.987 286.091 15.459c151.253 30.518 198.061 159.137 202.553 219.629 21.085 161.948-105.786 231.245-171.809 245.655z" fill="#F7BC28"/><path d="M190.596 208.634a370.146 370.146 0 01-70.617-2.067c-11.956-1.503-26.841-6.543-26.09-16.357.666-8.653 13.135-12.812 23.519-14.854a850.851 850.851 0 01246.56-11.104c13.826 1.393 28.694 3.579 38.285 11.788 4.014 3.416 6.9 8.353 5.124 12.863-2.067 5.287-9.352 7.773-15.859 9.473a497.787 497.787 0 01-130.663 15.836l-70.259-5.578z" fill="#153A23"/><path d="M203.125 154.899c22.084-4.484 44.536-8.968 66.988-7.047 22.452 1.922 45.262 11.284 58.473 29.563 14.57 20.218 15.048 47.388 26.312 69.614 6.901 13.666 18.114 26.478 17.354 41.691-1.102 22.208-25.954 34.397-47.338 40.496a547.227 547.227 0 01-163.217 20.807c-5.927-.145-12.05-.436-17.396-3.007-9.454-4.51-14.492-15.52-14.8-25.966-.307-10.446 3.22-20.671 6.926-30.485a734.605 734.605 0 0159.78-122.469" fill="#FAC7B7"/><path d="M213.125 172.29a221.964 221.964 0 00-11.58 88.021c1.016 14.367 3.629 29.144 11.315 40.794a46.778 46.778 0 0044.195 20.637c16.653-2.059 31.897-13.317 41.112-28.768 13.467-22.584 14.057-51.489 12.246-78.455-1.622-23.976-6.985-51.445-26.337-62.456-15.219-8.652-33.588-3.766-50.079 1.324l-20.872 18.903z" fill="#B26D55"/><path d="M189.734 230.988c22.896.094 49.097-10.361 54.861-15.871 17.379-16.596 19.044-42.708 18.524-65.531l-54.341 11.258-18.651 35.021s-.402 35.123-.393 35.123z" fill="#FAC7B7"/><path d="M255.347 159.964s18.72 47.381 67.466 56.853l-7.686-28.426-16.678-28.427h-43.102z" fill="#FAC7B7"/><path d="M89.995 500.397c-9.326-30.032 3.117-74.183 25.167-96.596 22.051-22.414 52.257-35.021 82.676-42.965 37.175-9.72 76.861-13.23 113.899-3.177 15.5 4.202 30.317 10.711 44.408 18.475 22.162 12.223 43.341 28.555 54.067 51.48 12.204 26.112 9.087 41 4.68 69.469" fill="#39B55D"/><path d="M279.046 212.768a2.95 2.95 0 00-3.117 1.64c-.137.291-.274.573-.385.855-.367.965-.333 2.289.59 2.767.384.166.803.239 1.221.214 4.319.103 8.614.676 12.81 1.708a62.499 62.499 0 016.328 1.879c.521.188 2.434 1.264 2.921 1.085.854-.325.435-1.896.077-2.443a6.139 6.139 0 00-2.05-1.708l-.214-.137a38.096 38.096 0 00-13.911-5.125l-4.27-.735z" fill="#FAC7B7"/><path d="M226.166 160.955c-16.875 1.17-21.436 15.708-27.414 29.332-6.678 15.204-18.463 31.493-26.568 45.971-7.934 14.162-15.807 28.435-21.82 43.562a153.792 153.792 0 00-7.242 22.994c-1.562 6.952-1.255 8.627-2.194 15.793-1.059 8.157-.709 17.707 7.464 19.218 8.172 1.512 22.802 1.119 30.821 2.196 1.503.205 2.16-2.102.64-2.307-11.623-1.554-30.881 3.417-35.492-11.497-2.118-6.833-.718-14.384.734-21.217 1.554-7.354 17.319-35.405 19.975-42.434 10.88-28.768 19.019-33.5 32.136-61.201 6.833-14.52 9.702-36.66 28.96-38.001 1.52-.103 1.537-2.494 0-2.392v-.017z" fill="#fff"/><path d="M213.971 334.469c-7.422-.684-19.771-2.682-26.662-5.518-6.038-2.477-12.682-5.979-16.124-11.796-5.876-9.908-4.91-25.488 2.989-34.09 1.033-1.127 1.401-3.877.359-2.741-6.832 7.439-10.445 15.605-9.232 25.377.854 6.568.547 12.991 4.074 16.365 4.329 4.151 13.143 7.619 18.694 9.746 6.712 2.563 15.722 3.485 22.861 4.151 1.538.137 9.394-1.349 7.857-1.494h-4.816z" fill="#fff"/><path d="M189.35 266.375c-3.527 9.592-7.481 25.42-5.252 33.253 1.298 4.561 9.974 11.445 16.909 17.219 1.178.983 3.749 1.709 2.562.701-6.602-5.492-13.895-11.574-16.226-20.218-2.562-9.763.196-22.584 3.569-31.766.53-1.444-1.067-.624-1.597.811h.035zM196.361 220.985c8.54-1.264 16.645-4.39 24.536-7.866 7.284-3.212 18.976-8.644 24.766-14.214 5.79-5.569 7.122-15.067 9.684-22.566 2.818-8.098 2.357-12.574 2.417-21.141 0-1.537-1.708-5.697-1.708-4.151 0 24.062-5.201 37.873-16.978 48.644-5.568 5.125-12.571 8.345-19.411 11.361-7.686 3.416-15.603 6.397-23.964 7.627-1.52.222-.854 2.563.632 2.306h.026zM212.348 195.079c2.041-7.56 11.418-15.196 16.841-20.944 5.884-6.244 7.174-8.354 14.339-13.043 1.289-.854.094-2.904-1.204-2.059-7.687 5.014-15.099 10.797-21.265 17.596-5.483 6.047-8.967 12.471-9.437 16.4-.188 1.529-.982 5.526 0 5.876l.726-3.826z" fill="#fff"/><path d="M231.956 187.707c7.515-9.532 16.03-21.353 14.74-29.041-.248-1.495-2.092-2.152-2.306-.632-1.665 11.958-9.513 23.916-16.781 33.141-.939 1.196 1.033.795 1.981-.41l2.366-3.058zM328.219 217.116c-27.029-7.201-48.678-30.16-54.297-57.545l-1.153 1.512c17.174-1.58 32.264 9.268 42.094 22.49 11.307 15.204 15.927 34.073 22.084 51.677a229.2 229.2 0 0011.435 26.351c4.228 8.481 8.54 17.783 7.43 27.52-1.879 16.272-18.182 25.531-32.11 30.511-21.41 7.687-44.648 11.027-67.322 11.232-1.537 0-5.124 3.622-3.561 3.605 21.692-.197 40.523-2.751 61.224-9.311 14.193-4.51 38.43-15.733 44.066-30.604 3.322-8.772 3.673-16.485.222-24.916-3.902-9.532-12.878-18.561-16.584-28.187-7.157-18.638-14.518-47.03-19.642-53.052-11.957-14.025-29.891-31.484-49.311-29.699a1.222 1.222 0 00-1.153 1.512c8.173 39.24 28.183 51.813 55.972 59.219a1.197 1.197 0 00.632-2.306l-.026-.009z" fill="#fff"/><path d="M252.358 323.074c16.892 1.427 44.109-.162 60.25-6.124 13.066-4.835 15.987-12.01 21.734-25.061 3.229-7.329 5.449-6.628-.153-23.062-.496-1.452-2.989-1.956-2.195-.632 7.686 12.863-2.297 30.356-12.272 38.59-11.247 9.285-25.74 13.402-40.078 14.461-9.096.536-18.219.353-27.286-.546-1.529-.128-1.52 2.263 0 2.391v-.017z" fill="#fff"/><path d="M343.805 296.689c6.926-9.028 4.364-15.178 1.87-25.992-2.921-12.667-10.47-23.677-17.405-34.439-.854-1.29-2.903-.094-2.066 1.204 6.576 10.207 13.664 20.5 16.807 32.458 2.809 10.617 3.535 19.321-2.52 30.271-.743 1.341-1.144 3.656-.222 2.452l3.536-5.954zM295.485 304.163c10.658-3.083 20.214-16.571 24.519-26.624 5.286-12.325-.854-19.603-3.818-32.407-.35-1.494-2.647-.854-2.306.641 2.81 12.061 3.596 25.172-1.161 36.865-3.928 9.661-12.417 16.153-21.888 20.859a17.306 17.306 0 00-2.741 2.357l7.395-1.691zM290.933 179.576c5.124 1.529 9.002 5.347 12.631 9.105 3.758 3.904 12.34 14.179 15.509 18.57 6.183 8.541 6.106 11.778 9.821 21.652.538 1.427 2.852.803 2.306-.64a120.985 120.985 0 00-16.073-29.631c-3.279-4.407-3.074-6.329-6.917-10.25-3.698-3.758-8.6-7.687-13.758-9.25-1.478-.444-4.953 0-3.484.435l-.035.009z" fill="#fff"/><path d="M205.815 229.561c-10.248 1.666-13.903 1.546-23.272 6.287-6.721 3.416-13.783 8.345-14.876 15.802-1.401 9.592 8.224 17.587 17.737 19.44 9.514 1.854 19.36-.239 29.036.547M307.697 214.255a56.59 56.59 0 0125.578 3.339c8.13 3.067 15.03 11.292 13.553 19.859-1.589 9.208-11.367 14.35-20.18 17.442a193.867 193.867 0 01-25.304 7.013M234.655 317.941l7.028 36.669h21.512l7.789-47.483-36.329 10.814z" fill="#B26D55"/><path d="M207.335 369.506a60.391 60.391 0 013.672-26.479 5.264 5.264 0 011.486-2.391 5.481 5.481 0 013.416-.769c24.143 0 46.381-1.999 70.524-2.042 3.143 0 8.275 1.914 11.213 3.033 5.124 1.939 8.54 7.004 9.889 12.291 1.35 5.287 1.051 10.856.709 16.314" fill="#39B55D"/><path d="M213.612 285.893a.788.788 0 01-1.068 0c-2.451-2.153-5.294-3.827-7.839-5.877-2.733-2.212-5.21-5.048-5.825-8.541-1.153-6.492 5.483-10.882 10.872-6.714a19.765 19.765 0 013.809 4.271.188.188 0 00.35-.12 6.931 6.931 0 011.648-5.125c2.041-2.443 6.354-4.518 9.633-3.912 4.62.854 4.509 6.176 3.245 9.678-1.537 4.219-5.875 7.935-9.061 10.907l-5.764 5.433zM298.158 281.955a.79.79 0 01-1.067-.119c-2.178-2.426-4.817-4.408-7.106-6.74-2.459-2.511-4.594-5.62-4.808-9.122-.401-6.577 6.696-10.182 11.572-5.424a19.587 19.587 0 013.288 4.681.195.195 0 00.092.083.203.203 0 00.124.012.2.2 0 00.151-.181 6.95 6.95 0 012.229-4.885c2.306-2.196 6.832-3.759 10.018-2.776 4.492 1.375 3.766 6.645 2.109 9.976-2.007 4.023-6.747 7.218-10.248 9.806l-6.354 4.689z" fill="#F1673C"/><path d="M268.029 294.468a32.208 32.208 0 0017.746-18.432 1.714 1.714 0 00.037-1.473 1.707 1.707 0 00-3.265.619 28.52 28.52 0 01-15.372 16.092 1.705 1.705 0 00-1.17 2.058 1.71 1.71 0 002.058 1.171l-.034-.035zM269.37 234.464c1.443 6.141 7.259 11.335 13.809 9.84 6.081-1.384 8.719-7.85 10.47-13.146l-2.434 1 11.897 6.073c1.912.973 3.612-1.914 1.708-2.887l-11.897-6.073a1.707 1.707 0 00-2.459.999c-1.29 3.895-3.041 9.054-7.302 10.574-5.03 1.794-9.445-2.69-10.521-7.268-.496-2.093-3.724-1.205-3.228.854l-.043.034z" fill="#010101"/><path d="M288.764 238.393l.419.316c.222.171.051.043-.069-.06l.282.222 1.025.855 2.366 1.956c1.486 1.238 2.963 2.502 4.526 3.638a1.704 1.704 0 002.289-.606 1.71 1.71 0 00-.598-2.289l-.427-.308c-.222-.171-.043-.042.077.051l-.291-.222-1.025-.854c-.794-.649-1.579-1.307-2.365-1.964-1.486-1.23-2.955-2.494-4.526-3.631a1.71 1.71 0 00-2.289.598 1.71 1.71 0 00.606 2.29v.008zM240.069 238.769c-1.076 4.578-5.491 9.054-10.521 7.26-4.27-1.512-5.978-6.679-7.311-10.574a1.698 1.698 0 00-.988-1.082 1.708 1.708 0 00-1.463.082l-11.904 6.073c-1.922.983-.231 3.87 1.708 2.888l11.896-6.065-2.451-1.008c1.759 5.313 4.389 11.753 10.47 13.154 6.55 1.503 12.366-3.715 13.809-9.84.495-2.092-2.733-2.989-3.228-.854l-.017-.034z" fill="#010101"/><path d="M222.212 240.708c-1.563 1.136-3.032 2.4-4.518 3.639l-2.366 1.956-1.024.854-.257.196c-.102.077.351-.265.043 0l-.427.316a1.707 1.707 0 00-.598 2.289 1.711 1.711 0 002.289.598c1.563-1.136 3.04-2.4 4.518-3.63l2.374-1.964 1.025-.855.247-.196.419-.308a1.706 1.706 0 00-.544-2.902 1.706 1.706 0 00-1.164.007h-.017zM318.834 226.281a24.162 24.162 0 019.24.854c2.946.743 5.978 1.709 7.686 4.391a5.12 5.12 0 01.658 4.604 12.14 12.14 0 01-2.631 4.057 19.903 19.903 0 01-6.883 4.39c-2.989 1.247-6.098 2.204-9.07 3.519-1.4.615-.187 2.682 1.205 2.059 5.858-2.563 12.81-3.844 17.08-9.029 2.382-2.887 3.885-6.406 2.135-10.002-1.614-3.297-4.766-4.92-8.13-5.911a28.256 28.256 0 00-11.956-1.238c-1.521.222-.854 2.562.631 2.306h.035z" fill="#010101"/><path d="M320.96 240.033a11.56 11.56 0 002.682-1.025 16.582 16.582 0 003.262-2.007 4.213 4.213 0 001.819-2.887c.077-1.58-1.358-2.503-2.639-3.024a19.499 19.499 0 00-5.816-1.051 1.198 1.198 0 00-1.187 1.196 1.223 1.223 0 001.17 1.179l1.017.085.58.06h.675l.342.051.563.103c.404.076.803.172 1.196.29l.512.171.197.077c-.248-.094.059 0 .094 0 .034 0 .299.154.435.231l.205.136c.282.163-.102-.111 0 0l.214.205c.162.146-.146-.247-.052-.068l.06.094c.154.231-.085-.273 0 0 .086.273 0-.265 0 0a.878.878 0 000 .145s.086-.316 0-.179a.802.802 0 00-.068.23c-.043.197.145-.264 0-.094 0 0-.043.077-.06.12s-.111.171-.171.265c-.06.094.197-.231.043-.06l-.103.12c-.068.085-.145.162-.213.239-.068.077-.401.35-.598.529-.06.043-.162.146.068-.051l-.179.128a3.967 3.967 0 01-.316.222c-.111.069-.478.316-.717.462-.47.281-.948.538-1.435.777l-.786.367-.128.051c.359-.111.069 0 0 0l-.341.129a6.548 6.548 0 01-1.051.324 1.192 1.192 0 00-.733.557 1.202 1.202 0 00-.121.912 1.218 1.218 0 001.469.854l.111.137zM196.071 262.258a29.69 29.69 0 01-12.4-1.059c-2.878-.854-8.489-2.614-7.686-6.585.358-1.854 1.708-3.417 2.989-4.724a28.255 28.255 0 014.27-3.553 29.88 29.88 0 0110.435-4.476c1.504-.333.854-2.639-.631-2.306-6.508 1.435-13.067 5.005-17.234 10.301-1.999 2.562-3.288 6.056-1.153 8.934 1.964 2.64 5.773 3.938 8.805 4.826a31.318 31.318 0 0012.647 1.034c1.503-.188 1.521-2.563 0-2.392h-.042z" fill="#010101"/><path d="M191.109 246.935a14.407 14.407 0 00-4.646 1.324 10.576 10.576 0 00-3.664 2.724 4.078 4.078 0 00-.495 4.442 5.532 5.532 0 003.314 2.767c1.853.581 3.826.291 5.704 0a1.201 1.201 0 00.854-1.469 1.227 1.227 0 00-1.468-.854c-1.546.231-3.254.496-4.74-.111.136.051-.248-.128-.291-.154a4.835 4.835 0 01-.427-.281c.077.051.052 0-.059-.06l-.188-.18s-.308-.333-.231-.239a4.542 4.542 0 01-.273-.427 1.768 1.768 0 01-.111-.222v-.06a2.841 2.841 0 01-.128-.47v-.281-.043c0-.086 0-.162.051-.248.039-.12.094-.235.162-.342a3.07 3.07 0 01.624-.734 9.712 9.712 0 011.802-1.298 11.385 11.385 0 014.27-1.418 1.23 1.23 0 001.195-1.196 1.205 1.205 0 00-1.195-1.196l-.06.026z" fill="#010101"/><path d="M257.098 250.949c2.084 5.356 4.466 10.711 6.157 16.067a2.048 2.048 0 01-.316 1.812 2.053 2.053 0 01-1.64.836l-7.686.06a2.056 2.056 0 01-1.944-1.438 2.063 2.063 0 01-.08-.852l1.538-15.989a2.053 2.053 0 011.79-1.813 2.06 2.06 0 012.181 1.317z" fill="#C05929"/><path d="M188.402 167.814l128.006-4.612-22.144-56.896h-83.299l-22.563 61.508zM213.783 340.994a487.505 487.505 0 0182.958-1.571c1.528.102 1.528-2.289 0-2.392a487.402 487.402 0 00-82.958 1.572c-1.52.153-1.529 2.562 0 2.391zM93.308 496.571c-5.346-3.366-8.07-10.472-5.858-16.452 2.212-5.979 9.198-9.797 15.534-8.627v-2.297c-9.599 3.203-16.9-8.055-16.806-16.426.05-4.911 1.759-10.104 5.5-13.453 3.74-3.348 9.146-4.578 13.749-2.562 1.392.623 2.562-1.444 1.204-2.067a15.37 15.37 0 00-15.372 1.862c-4.834 3.57-7.225 9.575-7.473 15.452-.435 10.079 8.361 23.292 19.805 19.466 1.024-.342 1.246-2.076 0-2.298-7.422-1.375-15.372 2.563-18.233 9.678-2.861 7.115.256 15.767 6.72 19.799 1.307.854 2.511-1.247 1.205-2.058l.025-.017zM145.377 397.702a11.84 11.84 0 01-9.59-8.422c-1.444-4.758.546-9.609 4.44-12.548 8.668-6.525 20.069-.094 21.598 9.96l.854-1.469c-3.467.632-6.371-2.793-6.55-6.039-.179-3.246 2.502-5.68 5.389-6.577 7.395-2.272 12.963 4.45 14.595 10.942.375 1.486 2.681.854 2.305-.641-1.178-4.681-3.843-9.225-8.181-11.608a12.151 12.151 0 00-12.101.231c-3.416 2.144-5.269 6.132-3.937 10.079 1.332 3.946 4.962 6.679 9.112 5.919a1.21 1.21 0 00.854-1.469 17.378 17.378 0 00-10.043-13.171 15.243 15.243 0 00-15.773 2.238 13.816 13.816 0 00-5.022 14.52c1.46 5.262 5.893 9.627 11.384 10.37 1.503.196 2.152-2.102.632-2.307l.034-.008zM327.083 369.711c11.154-4.339 24.63 5.586 23.733 17.545l1.196-1.196c-3.16-.299-5.38-3.015-6.055-5.979-.743-3.289.683-6.449 3.057-8.704 5.935-5.638 14.774-4.57 22.204-3.545 1.503.205 2.152-2.093.632-2.306-9.027-1.247-20.376-2.229-26.346 6.312-4.27 6.048-1.469 15.87 6.533 16.622a1.212 1.212 0 001.196-1.196c.999-13.41-14.219-24.728-26.764-19.85-1.418.555-.803 2.861.64 2.306l-.026-.009zM376.009 392.825c3.194-1.751 6.977.58 8.54 3.476 2.195 4.006.931 9.105-.094 13.265a1.205 1.205 0 001.469 1.469c8.412-2.562 17.371 6.834 14.518 15.085-.504 1.46 1.802 2.092 2.298.64 3.416-10.002-7.396-21.097-17.473-18.031l1.469 1.469c1.281-5.202 2.562-11.565-.854-16.229-2.562-3.416-7.148-5.347-11.103-3.186-1.349.735-.145 2.802 1.205 2.059l.025-.017zM420.426 441.033c4.355-.495 7.746 3.417 7.951 7.542.213 4.34-2.272 8.414-4.996 11.574a35.862 35.862 0 01-19.335 11.497c-1.298.291-1.033 2.435.316 2.341 5.44-.359 10.197 4.117 9.249 9.686a8.977 8.977 0 01-1.187 3.203c-.547.854-1.708 1.546-2.144 2.417-.435.871.069 2.409.188 3.314l.581 4.51c.196 1.504 2.562 1.521 2.391 0l-.41-3.16c-.111-.854-.606-2.332-.41-3.161.248-1.007 1.281-1.776 1.862-2.716a11.284 11.284 0 001.503-7.636c-.939-5.449-6.183-9.208-11.623-8.866l.325 2.34c9.351-2.109 18.344-7.841 23.365-16.152 2.34-3.869 3.707-8.755 1.836-13.085-1.605-3.733-5.295-6.543-9.462-6.065-1.512.179-1.529 2.563 0 2.392v.025z" fill="#153A23"/><path d="M401.928 428.528c4.1-1.554 9.625-2.562 13.357.479 2.562 2.075 4.15 6.526 1.708 9.31-1.008 1.153.675 2.853 1.708 1.708 2.451-2.818 2.306-6.833.512-9.959-2.118-3.716-6.242-5.381-10.393-5.347a21.684 21.684 0 00-7.532 1.529c-1.426.546-.812 2.853.632 2.306l.008-.026zM210.666 366.047a33.94 33.94 0 013.586-24.275 1.192 1.192 0 00-.449-1.591 1.193 1.193 0 00-1.609.378 36.47 36.47 0 00-3.817 26.12c.35 1.503 2.656.854 2.306-.632h-.017zM222.741 362.562a16.393 16.393 0 012.639-14.888 1.216 1.216 0 00-.435-1.64 1.229 1.229 0 00-1.632.436 18.626 18.626 0 00-2.878 16.724c.47 1.461 2.776.854 2.306-.632zM238.412 366.414c.718-4.271-.094-8.883-.683-13.103-.589-4.219-1.127-8.883-2.776-12.88-.58-1.41-2.895-.795-2.305.632 1.571 3.809 2.101 8.2 2.681 12.248.359 2.435.641 4.878.794 7.338a22.408 22.408 0 010 5.125c-.247 1.503 2.05 2.152 2.306.632l-.017.008zM246.713 345.641a64.551 64.551 0 01-.657 16.178c-.257 1.503 2.049 2.152 2.305.632a67.133 67.133 0 00.743-16.81c-.128-1.52-2.519-1.529-2.391 0zM261.12 362.314a31.62 31.62 0 001.367-12.445 29.366 29.366 0 00-3.024-12.061c-.726-1.358-2.792-.153-2.058 1.205 1.819 3.416 2.494 7.397 2.716 11.206a29.575 29.575 0 01-1.307 11.463c-.512 1.452 1.794 2.076 2.306.632zM267.816 343.702a27.024 27.024 0 013.27 18.928c-.299 1.504 2.007 2.144 2.306.632a29.607 29.607 0 00-3.527-20.764 1.198 1.198 0 00-2.067 1.204h.018zM296.963 342.506a30.475 30.475 0 014.5 19.595c-.162 1.529 2.229 1.52 2.391 0a32.576 32.576 0 00-4.808-20.799c-.854-1.298-2.886-.103-2.066 1.204h-.017zM288.363 362.306a19.15 19.15 0 01.35-17.126c.726-1.358-1.332-2.563-2.058-1.205a21.647 21.647 0 00-.35 19.535c.666 1.384 2.724.171 2.058-1.204z" fill="#153A23"/><path d="M225.807 372.077a4380.58 4380.58 0 0045.852-3.109l22.682-1.708c3.775-.291 7.552-.575 11.333-.854 2.903-.24 5.747-.513 8.258-2.102 1.289-.854.094-2.895-1.213-2.067-3.023 1.922-6.892 1.768-10.35 2.042l-10.394.854c-7.401.569-14.802 1.125-22.204 1.666a4715.958 4715.958 0 01-43.964 2.972c-1.52.094-1.537 2.486 0 2.383v-.077zM107.92 434.67c-3.313-1.828-6.55-5.125-6.388-9.199.137-3.494 3.989-7.167 7.55-5.544.965.436 2.408-.555 1.64-1.64-1.179-1.64-2.357-3.972-1.367-5.979.777-1.563 3.023-2.332 4.27-.854.811.939 2.272-.069 1.999-1.162-.752-2.955-1.811-8.781 2.767-9.097 4.406-.299 6.609 4.339 8.181 7.688.529 1.127 2.203.495 2.229-.607l.23-8.541c0-1.051-.358-3.417.914-3.895 1.443-.504 2.827 1.435 3.57 2.349.973 1.196 2.656-.504 1.708-1.709-1.751-2.144-5.457-4.817-7.789-1.708-1.067 1.409-.734 3.707-.785 5.347l-.222 8.183 2.229-.598c-2.11-4.476-5.679-10.19-11.564-8.687-5.414 1.375-4.825 7.756-3.757 11.958l1.998-1.161c-1.896-2.195-5.32-1.76-7.233.213-2.562 2.691-1.35 6.885.563 9.55l1.632-1.632c-4.501-2.05-9.608 1.077-10.872 5.681-1.511 5.517 2.776 10.694 7.302 13.188 1.349.743 2.562-1.316 1.204-2.059l-.009-.085zM178.547 372.043a13.481 13.481 0 0112.004-9.142 13.484 13.484 0 0112.967 7.715c.691 1.376 2.749.171 2.066-1.204a15.878 15.878 0 00-29.343 1.999c-.513 1.452 1.802 2.075 2.306.632zM226.089 476.976c-1.708-2.562-3.237-5.928-1.665-8.934 1.656-3.169 4.97-2.606 7.429-.786 3.784 2.81 10.061 9.635 6.832 14.606l1.879-.239c-1.836-1.563-1.708-4.271-.418-6.15 1.469-2.178 4.227-3.041 6.678-3.511 4.048-.786 10.419-1.512 12.896 2.674a1.193 1.193 0 001.635.431 1.198 1.198 0 00.431-1.636c-3.347-5.663-11.887-4.92-17.319-3.374-3.032.855-5.901 2.563-7.097 5.629-1.042 2.614-.717 5.74 1.503 7.628a1.23 1.23 0 00.997.327 1.223 1.223 0 00.882-.566c2.161-3.417 1.051-7.243-.939-10.429-2.084-3.349-5.184-7.022-8.848-8.662a6.521 6.521 0 00-8.642 2.853c-2.024 3.784-.504 8.004 1.665 11.343.854 1.29 2.904.094 2.067-1.204h.034zM283.128 406.448a8.195 8.195 0 019.349 1.858 8.188 8.188 0 011.753 2.874 7.99 7.99 0 01.427 3.263c-.06.803-.41 2.648-1.426 2.793-1.298.18-.803-1.571-.265-2.084a5.007 5.007 0 013.066-1.067c4.27-.299 8.147 2.724 10.051 6.329 2.409 4.535 2.178 10.036 1.452 14.965-.222 1.503 2.075 2.152 2.298.64.854-5.603 1.058-11.659-1.708-16.818-2.204-4.151-6.653-7.508-11.478-7.534-2.152 0-4.791.632-6.038 2.563-1.042 1.589-.854 4.057.939 5.065 2.033 1.17 4.091-.487 4.911-2.315a9.342 9.342 0 00-.197-7.055 10.524 10.524 0 00-5.683-5.736 10.528 10.528 0 00-8.075-.03c-1.409.581-.794 2.896.632 2.307l-.008-.018zM193.406 405.919c5.867 1.349 12.161-3.647 12.016-9.712 0-1.537-2.425-1.546-2.391 0 .111 4.476-4.655 8.405-8.984 7.406-1.503-.351-2.135 1.956-.641 2.306zM125.658 450.514c-2.75-2.152-7.447-.777-8.121 2.845-.735 3.937 3.936 6.927 7.327 5.125l-1.759-.709c.384 1.05-1.094 2.075-1.708 2.784a5.207 5.207 0 00-1.521 3.955c.299 3.109 3.305 5.398 5.808 6.833a1.192 1.192 0 001.557-.47 1.2 1.2 0 00-.353-1.588c-1.759-1.008-5.397-3.348-4.535-5.877.384-1.136 1.529-1.947 2.255-2.861a3.488 3.488 0 00.802-3.417 1.214 1.214 0 00-.71-.773 1.227 1.227 0 00-1.049.064c-1.631.854-4.15-.769-3.775-2.665.325-1.597 2.776-2.622 4.091-1.588 1.315 1.033 2.904-.744 1.708-1.709l-.017.051zM337.972 449.37c-.487 4.518-.649 9.396 1.033 13.726 1.683 4.331 4.911 6.142 9.317 7.201 1.324.324 3.724 1.016 3.809 2.776.086 1.759-2.203 1.913-3.262 2.562a6.825 6.825 0 00-3.083 4.638c-1.178 5.621 3.655 11.54 1.102 16.819-.666 1.375 1.4 2.562 2.066 1.204 2.733-5.663-1.494-10.779-.982-16.511a5.324 5.324 0 011.845-3.938c.854-.649 2.041-.785 2.963-1.366a3.72 3.72 0 001.418-4.724c-.854-2.101-2.801-3.1-4.876-3.647-2.87-.76-5.389-1.247-7.114-3.895-2.742-4.211-2.366-10.053-1.845-14.819.162-1.521-2.229-1.512-2.391 0v-.026zM173.457 447.764a14.622 14.622 0 01-1.794 17.16 1.206 1.206 0 00.239 1.871c5.645 2.391 6.397 9.395 6.03 14.768-.427 6.269-1.649 12.906 1.989 18.501.854 1.29 2.904.094 2.067-1.204-4.142-6.381-1.221-14.06-1.631-21.081-.299-5.185-2.092-10.865-7.25-13.043l.247 1.871a17.088 17.088 0 002.169-20.056 1.196 1.196 0 00-2.192.305c-.081.307-.035.634.126.908z" fill="#153A23"/><path d="M76.638 351.996a94.198 94.198 0 014.492-12.582c.3-.623.854-1.349 1.503-1.076.65.273.53 1.068.385 1.708-.911 3.844-1.828 7.685-2.75 11.523 3.591-.335 7.21.216 10.538 1.606a.563.563 0 01.069.982c-2 1.282-4.35 1.906-6.722 1.785-.854 0-1.819-.145-2.433.436a2.93 2.93 0 00-.675 1.495 39.043 39.043 0 01-3.621 9.498.648.648 0 01-1.196-.188c-.674-2.981.666-6.338.59-9.524a1.707 1.707 0 00-.257-1.016 1.885 1.885 0 00-1.178-.573 67.825 67.825 0 01-9.907-3.015c-.854-.333-1.895-1.298-1.255-1.981.215-.189.484-.306.769-.334a15.239 15.239 0 016.055 0l5.593 1.256zM48.72 381.558c-3.244 3.075-2.45 9.584 3.118 8.021 8.233-2.306 2.451-13.291-3.117-8.021zM57.474 244.09c-4.457 4.211-3.356 13.137 4.27 10.993 11.273-3.16 3.357-18.21-4.27-10.993zM167.222 90.889a92.732 92.732 0 01.265-13.334c.077-.674.393-1.554 1.076-1.494.683.06.854.854.905 1.469.371 3.929.729 7.864 1.077 11.804a21.966 21.966 0 0110.504-1.853.556.556 0 01.376.905 11.429 11.429 0 01-5.791 3.844c-.854.23-1.776.435-2.177 1.196a2.924 2.924 0 00-.154 1.631c.318 3.42.183 6.866-.401 10.25a.655.655 0 01-.528.514.644.644 0 01-.668-.309c-1.588-2.614-1.392-6.218-2.477-9.208a1.844 1.844 0 00-.572-.854 1.998 1.998 0 00-1.306-.162 68.67 68.67 0 01-10.351.316c-.931 0-2.203-.632-1.819-1.47.144-.25.362-.45.623-.572a15.374 15.374 0 015.748-1.904l5.67-.77zM153.089 117.735c-2.468 2.332-1.862 7.277 2.374 6.09 6.251-1.751 1.862-10.096-2.374-6.09zM343.147 77.188c-4.646 4.399-3.501 13.667 4.458 11.48 11.768-3.306 3.51-19.014-4.458-11.48zM363.609 97.227c-2.468 2.331-1.853 7.277 2.374 6.09 6.252-1.751 1.862-10.13-2.374-6.09zM102.19 260.413c-2.468 2.332-1.862 7.278 2.366 6.09 6.251-1.751 1.861-10.096-2.366-6.09zM430.529 262.856c.004-3.43.252-6.855.743-10.25.085-.521.367-1.187.854-1.11.487.077.615.683.64 1.162.12 3.049.239 6.09.35 9.139a16.851 16.851 0 018.165-.999.428.428 0 01.256.709 8.77 8.77 0 01-4.612 2.724c-.64.146-1.383.274-1.708.854-.18.39-.242.823-.179 1.248a30.353 30.353 0 01-.726 7.858.5.5 0 01-.422.376.5.5 0 01-.5-.265c-1.128-2.076-.854-4.852-1.546-7.201a1.44 1.44 0 00-.401-.7 1.528 1.528 0 00-1-.179 53.326 53.326 0 01-7.993-.171c-.709-.069-1.708-.573-1.341-1.213.125-.183.3-.325.504-.41a11.71 11.71 0 014.535-1.264l4.381-.308zM455.415 235.429c-3.246 3.075-2.451 9.584 3.117 8.021 8.224-2.306 2.451-13.282-3.117-8.021zM236.328 31.9c-3.245 3.076-2.451 9.584 3.118 8.021 8.215-2.306 2.45-13.282-3.118-8.02zM427.258 375.989c-5.235 4.954-3.945 15.435 5.022 12.924 13.254-3.724 3.945-21.406-5.022-12.924z" fill="#fff"/></svg>